<svg width="18" height="18" viewBox="0 0 18 18" fill="none" xmlns="http://www.w3.org/2000/svg">
<rect x="18" y="18" width="18" height="18" rx="9" transform="rotate(-180 18 18)" fill="#CEAC6A"/>
<path d="M7.36085 14.6614C7.22721 14.7958 7.04488 14.8708 6.85549 14.8708C6.66609 14.8708 6.48376 14.7958 6.35012 14.6614L2.31414 10.6247C1.89529 10.2059 1.89529 9.52669 2.31414 9.10863L2.8195 8.60313C3.23848 8.18429 3.91688 8.18429 4.33573 8.60313L6.85549 11.123L13.6642 4.31414C14.0832 3.89529 14.7623 3.89529 15.1805 4.31414L15.6858 4.81963C16.1047 5.23848 16.1047 5.91754 15.6858 6.33573L7.36085 14.6614Z" fill="#353535"/>
</svg>
