<svg width="194" height="39" viewBox="0 0 194 39" fill="none" xmlns="http://www.w3.org/2000/svg">
<path d="M44.9032 16.3736L49.7005 15.3163L51.3773 11.4548C51.3773 11.4548 49.6066 9.56986 48.117 8.00703C46.6273 6.44421 45.9275 4.83505 43.3659 3.41C40.8042 1.98495 37.9163 2.4906 36.9382 2.95031C35.96 3.41003 34.1437 4.23749 33.1187 7.17961C32.0937 10.1217 33.6781 13.3857 34.3767 14.581C35.0752 15.7763 44.9032 29.2914 44.9032 29.2914L40.5252 29.2914C40.5252 29.2914 33.9107 22.8554 28.9733 19.3617C24.0359 15.8679 21.1018 14.9945 14.8138 11.225C8.52579 7.4554 6.75575 3.7318 6.75575 3.7318L21.2414 3.7318C21.2414 3.7318 25.3702 3.7318 27.576 5.52464C29.7818 7.31749 31.0227 9.89178 29.2993 12.65C27.576 15.4083 22.6254 15.3163 22.6254 15.3163L7.87368 15.3163" stroke="#CEAC6A" stroke-width="1.9001"/>
<path d="M42.7108 3.2258C42.7108 3.2258 38.2863 5.2485 39.2179 8.46641C40.1494 11.6843 45.8319 14.7184 44.0619 19.2694C42.2919 23.8205 38.3326 24.6939 34.0474 23.9124C29.7623 23.1309 24.4524 21.1216 19.8412 23.1769C15.23 25.2322 13.088 29.3369 13.088 29.3369H8.94205L13.833 15.5458H14.8578L23.428 29.3369L28.5982 29.3369L27.1543 26.7166" stroke="#CEAC6A" stroke-width="1.9001"/>
<path d="M7.82621 14.3965H9.78245V16.2353H6.14941L7.82621 14.3965Z" fill="#CEAC6A"/>
<path d="M7.82621 14.3965H9.78245V16.2353H6.14941L7.82621 14.3965Z" fill="#CEAC6A"/>
<path d="M27.9247 26.1728L28.8364 27.9329L27.1775 28.7699L25.5237 25.5773L27.9247 26.1728Z" fill="#CEAC6A"/>
<path d="M27.9247 26.1728L28.8364 27.9329L27.1775 28.7699L25.5237 25.5773L27.9247 26.1728Z" fill="#CEAC6A"/>
<path d="M1.63022 14.3965H5.49616L3.81937 16.2353H0L1.63022 14.3965Z" fill="#CEAC6A"/>
<path d="M1.63022 14.3965H5.49616L3.81937 16.2353H0L1.63022 14.3965Z" fill="#CEAC6A"/>
<path d="M62.638 16.14C62.4473 16.14 62.3007 16.074 62.198 15.942C62.11 15.81 62.066 15.656 62.066 15.48C62.066 15.348 62.1173 15.2233 62.22 15.106C62.3227 14.974 62.4473 14.908 62.594 14.908H67.06L71.152 27.514L75.486 14.908H78.764V30.462H76.564V17.636L72.516 29.472C72.4427 29.692 72.318 29.912 72.142 30.132C71.966 30.352 71.702 30.462 71.35 30.462H69.942L65.718 17.68V30.462H63.892V17.944C63.892 17.4013 63.8113 16.9687 63.65 16.646C63.5033 16.3087 63.166 16.14 62.638 16.14ZM91.2177 16.052V30.462H88.9517V17.944C88.9517 17.3867 88.8417 16.9467 88.6217 16.624C88.4017 16.3013 88.0424 16.1253 87.5437 16.096C87.3237 16.096 87.1624 16.0373 87.0597 15.92C86.9571 15.8027 86.9057 15.656 86.9057 15.48C86.9057 15.3333 86.9644 15.2013 87.0817 15.084C87.2137 14.9667 87.3531 14.908 87.4997 14.908H90.0737C90.4697 14.908 90.7557 15.04 90.9317 15.304C91.1224 15.5533 91.2177 15.8027 91.2177 16.052ZM107.264 23.862L112.082 30.462H109.398L104.426 23.554C104.28 23.334 104.258 23.07 104.36 22.762C104.463 22.454 104.683 22.3 105.02 22.3H106.736C107.044 22.3 107.36 22.256 107.682 22.168C108.02 22.0653 108.32 21.904 108.584 21.684C108.848 21.464 109.068 21.1707 109.244 20.804C109.42 20.4227 109.508 19.946 109.508 19.374C109.508 18.3327 109.208 17.592 108.606 17.152C108.02 16.6973 107.279 16.47 106.384 16.47C106.267 16.47 106.113 16.4773 105.922 16.492C105.732 16.492 105.534 16.4993 105.328 16.514C105.123 16.514 104.932 16.5213 104.756 16.536C104.595 16.5507 104.485 16.558 104.426 16.558C104.265 16.5873 104.14 16.6167 104.052 16.646C103.964 16.6607 103.898 16.6973 103.854 16.756C103.81 16.8293 103.781 16.9467 103.766 17.108C103.752 17.2547 103.744 17.4673 103.744 17.746V30.462H101.5V17.834C101.5 17.218 101.405 16.8 101.214 16.58C101.024 16.3453 100.679 16.1987 100.18 16.14C99.931 16.1253 99.7696 16.052 99.6963 15.92C99.623 15.788 99.5863 15.656 99.5863 15.524C99.5716 15.3773 99.623 15.238 99.7403 15.106C99.8576 14.974 99.9896 14.908 100.136 14.908H104.954C105.292 14.908 105.695 14.9153 106.164 14.93C106.634 14.9447 107.052 14.9593 107.418 14.974C107.946 15.0033 108.474 15.1133 109.002 15.304C109.545 15.4947 110.029 15.7733 110.454 16.14C110.88 16.5067 111.224 16.9613 111.488 17.504C111.767 18.032 111.914 18.6553 111.928 19.374C111.928 19.99 111.804 20.562 111.554 21.09C111.32 21.618 110.997 22.08 110.586 22.476C110.161 22.872 109.662 23.1947 109.09 23.444C108.518 23.6787 107.91 23.818 107.264 23.862ZM118.811 30.462L123.453 18.076C123.497 17.944 123.534 17.834 123.563 17.746C123.592 17.6433 123.622 17.548 123.651 17.46C123.68 17.372 123.702 17.284 123.717 17.196C123.746 17.108 123.768 17.0053 123.783 16.888C123.783 16.7707 123.768 16.6753 123.739 16.602C123.71 16.514 123.644 16.426 123.541 16.338C123.453 16.2647 123.321 16.2133 123.145 16.184C122.984 16.14 122.815 16.118 122.639 16.118C122.463 16.118 122.324 16.0593 122.221 15.942C122.118 15.8247 122.067 15.6633 122.067 15.458C122.067 15.282 122.118 15.1427 122.221 15.04C122.338 14.9373 122.463 14.886 122.595 14.886H126.599L132.539 30.462H130.009L128.117 25.49H122.705L120.835 30.462H118.811ZM125.367 18.12L123.277 23.972H127.611L125.367 18.12ZM142.983 17.9V27.448C142.983 27.5947 142.983 27.7267 142.983 27.844C142.983 27.9613 142.99 28.0713 143.005 28.174C143.02 28.4233 143.093 28.5993 143.225 28.702C143.357 28.8047 143.511 28.878 143.687 28.922C143.863 28.9513 144.054 28.9587 144.259 28.944C144.464 28.9293 144.648 28.922 144.809 28.922C145.542 28.922 146.261 28.812 146.965 28.592C147.669 28.3573 148.241 27.976 148.681 27.448C149.121 26.964 149.466 26.348 149.715 25.6C149.979 24.852 150.111 23.884 150.111 22.696C150.111 21.7573 150.038 20.9067 149.891 20.144C149.744 19.3813 149.48 18.7287 149.099 18.186C148.732 17.6433 148.226 17.2253 147.581 16.932C146.95 16.624 146.144 16.4553 145.161 16.426C145.073 16.426 144.941 16.4333 144.765 16.448C144.604 16.448 144.442 16.448 144.281 16.448C144.105 16.4627 143.944 16.4773 143.797 16.492C143.65 16.492 143.562 16.492 143.533 16.492C143.357 16.536 143.232 16.5873 143.159 16.646C143.1 16.7047 143.056 16.822 143.027 16.998C142.998 17.0567 142.976 17.1227 142.961 17.196C142.961 17.2547 142.961 17.3207 142.961 17.394C142.961 17.4673 142.961 17.548 142.961 17.636C142.976 17.724 142.983 17.812 142.983 17.9ZM139.419 16.14C139.199 16.1253 139.038 16.052 138.935 15.92C138.847 15.788 138.803 15.6413 138.803 15.48C138.803 15.304 138.862 15.1647 138.979 15.062C139.096 14.9593 139.221 14.908 139.353 14.908H143.247C143.863 14.908 144.56 14.93 145.337 14.974C146.114 15.0033 146.767 15.062 147.295 15.15C148.028 15.282 148.71 15.524 149.341 15.876C149.986 16.2133 150.544 16.69 151.013 17.306C151.497 17.922 151.871 18.6773 152.135 19.572C152.414 20.452 152.553 21.4933 152.553 22.696C152.553 24.368 152.311 25.7027 151.827 26.7C151.343 27.6827 150.698 28.46 149.891 29.032C149.143 29.56 148.3 29.9267 147.361 30.132C146.422 30.352 145.308 30.462 144.017 30.462H140.739V17.966C140.739 17.306 140.629 16.8513 140.409 16.602C140.189 16.3527 139.859 16.1987 139.419 16.14ZM160.454 14.908H171.256L171.366 17.878C171.366 18.054 171.3 18.186 171.168 18.274C171.051 18.362 170.912 18.406 170.75 18.406C170.604 18.4207 170.464 18.3913 170.332 18.318C170.2 18.23 170.134 18.098 170.134 17.922C170.134 17.922 170.098 17.7827 170.024 17.504C169.966 17.2253 169.87 16.998 169.738 16.822C169.65 16.7047 169.496 16.6093 169.276 16.536C169.071 16.448 168.734 16.404 168.264 16.404H165.25C164.722 16.404 164.392 16.5213 164.26 16.756C164.128 16.976 164.062 17.284 164.062 17.68V21.618H167.318C167.509 21.618 167.685 21.6107 167.846 21.596C168.022 21.5667 168.184 21.53 168.33 21.486C168.653 21.398 168.888 21.266 169.034 21.09C169.181 20.914 169.254 20.5767 169.254 20.078C169.254 19.9753 169.313 19.8947 169.43 19.836C169.548 19.7627 169.687 19.726 169.848 19.726C169.995 19.726 170.127 19.7553 170.244 19.814C170.376 19.8727 170.442 19.9533 170.442 20.056V24.742C170.442 24.8593 170.376 24.9473 170.244 25.006C170.112 25.05 169.973 25.072 169.826 25.072C169.665 25.072 169.518 25.05 169.386 25.006C169.269 24.9473 169.21 24.8593 169.21 24.742C169.21 24.742 169.188 24.5953 169.144 24.302C169.115 24.0087 169.005 23.752 168.814 23.532C168.697 23.4 168.536 23.3047 168.33 23.246C168.125 23.1727 167.788 23.136 167.318 23.136H164.062V27.822C164.062 28.262 164.143 28.57 164.304 28.746C164.48 28.9073 164.964 28.988 165.756 28.988H168.748C169.1 28.988 169.357 28.966 169.518 28.922C169.694 28.8633 169.863 28.746 170.024 28.57C170.098 28.482 170.164 28.3867 170.222 28.284C170.281 28.1813 170.325 28.0713 170.354 27.954C170.398 27.8367 170.428 27.7193 170.442 27.602C170.472 27.47 170.501 27.3453 170.53 27.228C170.56 27.052 170.64 26.9273 170.772 26.854C170.904 26.7807 171.051 26.7513 171.212 26.766C171.359 26.7807 171.491 26.8393 171.608 26.942C171.726 27.03 171.784 27.1473 171.784 27.294L171.63 30.462H161.84V17.922C161.84 17.3353 161.745 16.9027 161.554 16.624C161.378 16.3453 161.034 16.184 160.52 16.14C160.3 16.14 160.139 16.0667 160.036 15.92C159.948 15.7733 159.904 15.634 159.904 15.502C159.904 15.3553 159.963 15.2233 160.08 15.106C160.198 14.974 160.322 14.908 160.454 14.908ZM181.224 30.462V17.944C181.224 17.372 181.129 16.932 180.938 16.624C180.762 16.3013 180.432 16.1327 179.948 16.118C179.743 16.118 179.589 16.0593 179.486 15.942C179.383 15.81 179.332 15.656 179.332 15.48C179.332 15.3333 179.383 15.2013 179.486 15.084C179.603 14.9667 179.728 14.908 179.86 14.908H183.864L190.376 26.722V14.908H192.312V29.34C192.312 29.5747 192.202 29.8167 191.982 30.066C191.762 30.33 191.498 30.462 191.19 30.462H190.2L183.116 17.966V30.462H181.224Z" fill="#BCBCBC"/>
</svg>
